<?xml version="1.0" encoding="utf-8"?>
<!-- Generator: Adobe Illustrator 21.0.2, SVG Export Plug-In . SVG Version: 6.00 Build 0)  -->
<svg version="1.1" id="Шар_1" xmlns="http://www.w3.org/2000/svg" xmlns:xlink="http://www.w3.org/1999/xlink" x="0px" y="0px"
	 viewBox="0 0 340 360" style="enable-background:new 0 0 340 360;" xml:space="preserve">
<style type="text/css">
	.st0{fill:none;stroke:#FFFFFF;stroke-width:4;stroke-linecap:round;stroke-linejoin:round;stroke-miterlimit:10;}
</style>
<g>
	<path class="st0" d="M211,108c-6.6-3.6-13.9-5.9-21.3-7"/>
	<path class="st0" d="M173,100.9c2.9-0.4,5.9-0.5,8.8-0.5"/>
	<path class="st0" d="M130.2,202.6c-17.6-23.8-17.1-57.9,2.5-80.4c8.1-9.2,18.8-16,30.6-19.4"/>
	<path class="st0" d="M157.2,223.5c0.9,0.4,1.9,0.7,2.8,1.1"/>
	<path class="st0" d="M228.6,206.4c-5.8,6.6-13.2,12.2-21.8,16c-15.4,6.9-32,7.2-46.7,2.1"/>
	<path class="st0" d="M244.5,167c-0.6,14.5-6.3,28.5-15.9,39.4"/>
	<path class="st0" d="M244.5,167c0.4-9.6-1.3-19.5-5.5-28.8c-6-13.4-16-23.7-28-30.1"/>
	<path class="st0" d="M225.2,130.4c6.9,9.1,10.9,20.3,11.3,31.7"/>
	<path class="st0" d="M215.4,120.4c-28.1-22.2-70.9-11.8-85.6,20.9"/>
	<path class="st0" d="M143.9,206.1c-5.8-5.1-10.7-11.5-14-19.1c-6.8-15.1-6.3-31.6,0-45.6"/>
	<path class="st0" d="M158,215.1c1.9,0.9,3.9,1.6,5.8,2.2"/>
	<path class="st0" d="M224.4,199c-14.3,17.9-38.8,25.3-60.6,18.4"/>
	<path class="st0" d="M236.5,162.1c0.3,7.9-1.1,15.7-4,22.9"/>
	<circle class="st0" cx="181.8" cy="164" r="19.2"/>
	<circle class="st0" cx="181.8" cy="164" r="4.4"/>
	<circle class="st0" cx="187.3" cy="132.6" r="6"/>
	<circle class="st0" cx="213.2" cy="168.4" r="2.9"/>
	<circle class="st0" cx="189.7" cy="200.3" r="2.4"/>
	<circle class="st0" cx="144.9" cy="168.4" r="2.9"/>
	<path class="st0" d="M155.2,140.3c1.6-2.6,3.3-5.2,4.9-7.8"/>
	<path class="st0" d="M208.5,147c0.1,2.4,0.3,4.8,0.4,7.2"/>
	<path class="st0" d="M155.4,188.5c-0.1-2.4-0.3-4.8-0.4-7.2"/>
	<path class="st0" d="M173.7,196.2c-4.8,3.5-10.6,5.5-16.5,5.5"/>
	<path class="st0" d="M208.5,189.8c-0.4-1.6-0.9-3.1-1.3-4.7"/>
	<path class="st0" d="M140.2,153.3c2-0.7,4-1.4,5.9-2.1"/>
	<path class="st0" d="M205.5,138c2-0.8,3.9-1.9,5.6-3.3"/>
	<path class="st0" d="M198.7,245c63.4-13.2,64.2-71.4,64.2-71.4"/>
	<path class="st0" d="M237.4,241.2c-4.3,3-8.8,5.5-13.6,7.6"/>
	<path class="st0" d="M266.7,206.9c-4.5,10.1-11.3,19.1-19.8,26.1"/>
	<path class="st0" d="M244.5,247c10.7-5.6,20.1-13.9,27-23.9"/>
	<path class="st0" d="M100,155.4c-2.4-32.1,29.6-66.8,61.4-69.4"/>
	<path class="st0" d="M119.9,92.8c-12.8,9.3-22.2,23.1-26.4,38.3"/>
	<path class="st0" d="M128.5,88.3c3.9-2.7,8.2-4.8,12.7-6.4"/>
	<path class="st0" d="M117.7,83.3c-8.2,3.6-15.3,9.7-20.1,17.2"/>
	<path class="st0" d="M119.5,257.5c-1.1,3.1-3.2,5.8-6.5,6.2c-2,0.2-4-0.4-6-0.1c-3.2,0.4-5.7,3.5-5.3,6.7c0.2,1.9,1.2,3.7,1.3,5.6
		c0.2,2.8-1.5,5.4-3.9,6.8c-2.4,1.4-5.4,1.6-8.3,1.4"/>
	<path class="st0" d="M136.7,210c-0.5,0.5-0.9,1-1.3,1.6l-7.4,10.2c-3.3,4.6-3.5,10.5-0.8,14.8l-10,13.8c-1.6,2.1-1.2,5.1,0.8,6.5
		c0.5,0.3,1,0.5,1.5,0.7"/>
	<path class="st0" d="M157.2,223.5c1.1-2.7,1.4-5.7,0.7-8.3"/>
	<path class="st0" d="M143.9,206.1c3.3-0.6,6.7,0,9.5,2c2.4,1.7,4,4.3,4.6,7"/>
	<path class="st0" d="M143.9,206.1c-2.6,0.5-5.2,1.9-7.2,3.9"/>
	<path class="st0" d="M157.2,223.5c-0.4,1-0.9,1.9-1.6,2.8l-7.4,10.2c-3.3,4.6-8.9,6.6-13.8,5.4l-10,13.8c-1.2,1.7-3.2,2.3-5,1.9"/>
	<path class="st0" d="M144.1,284.2c-0.8,2.3-2.3,4.2-4.7,4.5c-1.4,0.2-2.9-0.3-4.3-0.1c-2.3,0.3-4.1,2.5-3.8,4.8
		c0.1,1.4,0.8,2.6,1,4c0.2,2-1.1,3.9-2.8,4.9c-1.7,1-3.9,1.2-5.9,1"/>
	<path class="st0" d="M144.1,284.2c1.3,0.3,2.7-0.2,3.6-1.4l7.2-9.9c3.6,0.9,7.5-0.5,10-3.9l5.3-7.3c3.1-4.3,2.4-10.2-1.7-13.1
		c-4-2.9-9.8-1.8-12.9,2.5l-5.3,7.3c-2.4,3.3-2.5,7.6-0.6,10.7l-7.2,9.9c-1.1,1.5-0.8,3.6,0.6,4.7
		C143.4,283.9,143.8,284.1,144.1,284.2"/>
	<path class="st0" d="M95.2,219.2c-0.6,1.8-1.9,3.4-3.8,3.6c-1.1,0.1-2.3-0.2-3.5-0.1c-1.9,0.2-3.3,2-3.1,3.9
		c0.1,1.1,0.7,2.1,0.8,3.2c0.1,1.6-0.9,3.1-2.3,3.9c-1.4,0.8-3.1,0.9-4.8,0.8"/>
	<path class="st0" d="M95.2,219.2c1,0.3,2.2-0.1,2.9-1.1l5.8-8c2.9,0.7,6.1-0.4,8-3.1l4.3-5.9c2.5-3.5,1.9-8.2-1.3-10.5
		c-3.3-2.4-7.9-1.5-10.4,2l-4.3,5.9c-1.9,2.7-2,6.1-0.5,8.6l-5.8,8c-0.9,1.2-0.7,2.9,0.5,3.8C94.6,219,94.9,219.1,95.2,219.2"/>
</g>
</svg>
