<?xml version="1.0" encoding="utf-8"?>
<!-- Generator: Adobe Illustrator 21.0.2, SVG Export Plug-In . SVG Version: 6.00 Build 0)  -->
<svg version="1.1" id="Шар_1" xmlns="http://www.w3.org/2000/svg" xmlns:xlink="http://www.w3.org/1999/xlink" x="0px" y="0px"
	 viewBox="0 0 340 360" style="enable-background:new 0 0 340 360;" xml:space="preserve">
<style type="text/css">
	.st0{fill:none;stroke:#FFFFFF;stroke-width:4;stroke-linecap:round;stroke-linejoin:round;stroke-miterlimit:10;}
</style>
<g>
	<path class="st0" d="M159.1,153.2c-10.1-2.7-18-8.4-23.9-17.6c-2.7-4.1-4.3-8.9-4.6-13.7c9.1-4.9,17-10,23.1-18.7
		c5.6-8.1,9.9-17.8,14-26.8c0.1-0.2,0.1-0.3,0.2-0.5"/>
	<path class="st0" d="M159.1,153.2c0.5,0.1,1,0.3,1.5,0.4"/>
	<path class="st0" d="M176,142.5c2.1,4.5,6.4,7.8,11.1,9.5c4.7,1.7,9.8,2.1,14.8,2c3.2,0,6.4-0.2,9.5-1c8.5-2.3,15.3-10.3,16.2-19.1
		"/>
	<path class="st0" d="M161.3,153.4c-0.7-0.1-1.5-0.2-2.2-0.2"/>
	<path class="st0" d="M159.1,153.2c-14.5-0.8-32.1,12.4-39.9,23.1c-8.8,12-12.4,27.7-9.9,42.3c0.8,4.8,2.3,9.6,3.9,14.2
		c3.3,9.4,7.4,18.9,14.7,25.7"/>
	<path class="st0" d="M98.8,216.9c-2.6-13.2-0.7-27.4,5.5-39.4c6.2-12,16.5-21.9,28.8-27.4"/>
	<path class="st0" d="M100.9,227.5c0.5,4,2.2,7.9,4.7,11.1"/>
	<path class="st0" d="M80.5,189.8c-0.5-10.4,2.5-21,8.5-29.6"/>
	<path class="st0" d="M95,150.6c2.8-3.5,6.2-6.6,10.1-8.8"/>
	<path class="st0" d="M197.5,205.9c2.9-6.3,3.8-12.7,0.8-18.4c-14.7-27.2-33.3,0-33.3,0h-0.1c0,0-18.6-27.2-33.3,0
		c-11.5,21.4,33.3,53.5,33.3,53.5h0.1C165.1,240.9,189.3,223.6,197.5,205.9"/>
	<polyline class="st0" points="197.5,205.9 227.6,205.9 231.2,197.9 233.9,205.9 268.8,205.9 	"/>
	<polyline class="st0" points="140.9,205.9 165,205.9 167.9,195.8 171,205.9 181.2,205.9 185.5,189.9 189.8,205.9 197.5,205.9 	"/>
	<path class="st0" d="M182.8,253.4c12.4-5.8,22.3-16.7,27-29.5"/>
	<path class="st0" d="M208.3,252.6c5.1-5.9,10.3-11.8,14.1-18.5c3.4-6.1,5.7-12.8,8-19.5"/>
	<path class="st0" d="M199.9,261.3c-4.8,5-10.7,8.9-17.1,11.4"/>
	<path class="st0" d="M256.8,211.9c-1.7,10.7-5.4,21-10.9,30.3"/>
	<path class="st0" d="M238.9,253.4c-13.4,21-33.8,37.4-57.1,46.2"/>
	<path class="st0" d="M224.1,310.5c15.1-9,27.7-22.2,35.9-37.7"/>
</g>
</svg>
