<?xml version="1.0" encoding="utf-8"?>
<!-- Generator: Adobe Illustrator 21.0.2, SVG Export Plug-In . SVG Version: 6.00 Build 0)  -->
<svg version="1.1" id="Шар_1" xmlns="http://www.w3.org/2000/svg" xmlns:xlink="http://www.w3.org/1999/xlink" x="0px" y="0px"
	 viewBox="0 0 340 360" style="enable-background:new 0 0 340 360;" xml:space="preserve">
<style type="text/css">
	.st0{fill:none;stroke:#FFFFFF;stroke-width:4;stroke-linecap:round;stroke-linejoin:round;stroke-miterlimit:10;}
</style>
<g>
	<path class="st0" d="M158.9,137c0,0.1,0.1,0.3,0.1,0.4"/>
	<path class="st0" d="M114.6,76.9c-31.3,51.9-3.8,92.5,17.7,113.7"/>
	<path class="st0" d="M159,137.5c0.2,0.8,0.4,1.5,0.6,2.3"/>
	<line class="st0" x1="132.4" y1="190.6" x2="132.4" y2="190.6"/>
	<path class="st0" d="M158.9,137c-10.7-40.4-44.3-60.1-44.3-60.1"/>
	<path class="st0" d="M132.4,190.6c0.2,0.2,0.4,0.4,0.7,0.6"/>
	<path class="st0" d="M140,175.1c-5.4-14.1-11.5-31.6-16.4-49.4"/>
	<path class="st0" d="M140.1,175.2c0,0,0-0.1,0-0.1"/>
	<path class="st0" d="M114.6,76.9c0.9,15,4.4,32,9,48.8"/>
	<path class="st0" d="M148.5,158.5c-1.3,2.1-2.4,4.5-3.4,6.7"/>
	<path class="st0" d="M133.5,155.5c0,0,4.3-26.7,18.1-27.1"/>
	<path class="st0" d="M123.6,125.7c0.1,0.9,0.3,1.5,0.3,1.6"/>
	<path class="st0" d="M132.6,104.1c-10.6,1.6-9.7,16.6-9,21.5"/>
	<path class="st0" d="M126.8,139.1c0,0-11.1-10.6-17.5-5.2"/>
	<line class="st0" x1="158.9" y1="137" x2="140" y2="175.1"/>
	<line class="st0" x1="209.5" y1="202.4" x2="201.7" y2="218.3"/>
	<line class="st0" x1="132.4" y1="190.6" x2="131.3" y2="192.7"/>
	<polyline class="st0" points="209.5,202.4 219,183 219.8,181.3 	"/>
	<path class="st0" d="M131.3,192.7l-3.2,6.3c-8.8,17.7-3.8,38.4,11,48.9"/>
	<path class="st0" d="M162.7,129.4c9.9-19,32.4-27,50.5-17.9c18.4,9.2,25.4,32.4,15.6,51.8l-9,18.1"/>
	<line class="st0" x1="132.4" y1="190.6" x2="140" y2="175.1"/>
	<path class="st0" d="M153.6,254c16,2.8,33-5.6,41-21.7l7-14"/>
	<path class="st0" d="M153.6,254c-3.3-0.6-6.6-1.6-9.8-3.2c-1.7-0.8-3.2-1.8-4.6-2.8"/>
	<path class="st0" d="M158.9,137l0.7-1.4l2.8-5.6c0.1-0.2,0.2-0.4,0.3-0.6"/>
	<line class="st0" x1="148.5" y1="158.5" x2="148.2" y2="159"/>
	<line class="st0" x1="148.5" y1="158.5" x2="159" y2="137.5"/>
	<line class="st0" x1="161.1" y1="133.3" x2="159" y2="137.5"/>
	<line class="st0" x1="145.1" y1="165.2" x2="140.1" y2="175.2"/>
	<line class="st0" x1="131.3" y1="192.7" x2="132.4" y2="190.6"/>
	<line class="st0" x1="140.1" y1="175.2" x2="132.4" y2="190.6"/>
	<line class="st0" x1="145.1" y1="165.2" x2="148.2" y2="159"/>
	<line class="st0" x1="209.7" y1="202.3" x2="220.5" y2="180.7"/>
	<line class="st0" x1="201.7" y1="218.3" x2="209.7" y2="202.3"/>
	<path class="st0" d="M216,160.1c0.8-1.1,1.5-2.2,2.1-3.5c6.4-12.7,1.8-27.8-10.2-33.9c-12-6-26.9-0.6-33.2,12.1
		c-6.4,12.7-1.8,27.8,10.2,33.9C195.7,174.2,208.9,170.3,216,160.1"/>
	<path class="st0" d="M133,191.2c2.2-1.9,4.5-3.8,7-5.3c1.1-0.7,2.3-1.3,3.4-1.9"/>
	<path class="st0" d="M143.4,183.8c4.4-2.1,9-3.6,13.7-4.6"/>
	<path class="st0" d="M131.3,192.7c0.5-0.5,1.1-1,1.7-1.5"/>
	<path class="st0" d="M216,160.1c-2.7,7.7-10.6,13-18.4,15c-8.6,2.1-17.4,1.2-26.1,1.7c-3.5,0.2-7.1,0.6-10.6,1.3"/>
	<path class="st0" d="M160.9,178.1c-1.3,0.3-2.6,0.5-3.9,0.9"/>
	<path class="st0" d="M145.9,202.3c1.3-1,2.7-1.9,4.1-2.6"/>
	<path class="st0" d="M156.6,196.9c-1.1,0.3-2.3,0.7-3.4,1.2c-1.1,0.5-2.2,1-3.3,1.6"/>
	<path class="st0" d="M156.6,196.9c4.9-1.5,10-2,15.1-2.6c6.4-0.7,12.9-1.4,19.3-2c6.4-0.7,13-1.4,19-4.1c3.7-1.7,6.9-4.1,9.9-6.8"
		/>
	<path class="st0" d="M219.8,181.3c0.2-0.2,0.4-0.4,0.6-0.6"/>
	<path class="st0" d="M132.7,241.7c-2.6-8.3-1.9-17.7,1.9-25.7c2.6-5.4,6.5-10.2,11.3-13.7"/>
	<path class="st0" d="M209.5,202.4c0.1,0,0.1,0,0.2-0.1"/>
	<path class="st0" d="M209.5,202.4c-5.5,1.8-11.2,2.8-16.8,3.8c-18.8,3.1-41,4.9-49.8,25.4c-2.2,5.2-3.4,10.8-3.7,16.4"/>
	<path class="st0" d="M153.6,254c-0.6-7.6,0.8-15.5,5.6-21.4c6.5-8.2,17.3-10.9,27.3-12.2c5-0.6,10.1-1.1,15.1-2.1"/>
	<path class="st0" d="M162.1,159.7c2.3,7,5.9,13.2,12.8,16.9"/>
	<path class="st0" d="M162.1,159.7c-0.9-2.6-1.6-5.4-2.1-8.2c-0.2-0.8-0.3-1.5-0.4-2.3"/>
	<path class="st0" d="M159.5,139.7c0.3-2.2,0.8-4.3,1.5-6.4"/>
	<path class="st0" d="M159.5,139.7c-0.4,3.1-0.5,6.4,0,9.5"/>
	<path class="st0" d="M162.7,129.4c-0.6,1.3-1.2,2.6-1.7,3.9"/>
	<path class="st0" d="M167.2,122.3c-1.8,2.2-3.2,4.6-4.4,7.1"/>
	<path class="st0" d="M157,178.9c-2.2-2-4.2-4.2-5.4-6.9c-1.9-4-2.8-8.6-3.4-13"/>
	<path class="st0" d="M203.6,267.6c0.6-0.6,1.2-1.2,1.8-1.9"/>
	<path class="st0" d="M112.3,178.1c-19-1-30.7,20.7-34.2,36.4c-3.2,14.3,2.8,31.9,10.7,43.9c3.7,5.6,7.9,10.9,12.8,15.4
		c6.1,5.5,15,9,22.5,12.3c10.3,4.5,23.9,4.8,34.8,3.4c6.4-0.8,12.7-2.5,18.7-4.9"/>
	<path class="st0" d="M218.6,248c7.3-10.7,14-21.7,20.3-33.2c5.3-9.7,10.6-19.3,16.2-28.8c3.4-5.9,7.1-11.8,12.4-16.1
		c5-3.9,11-6,17-8.1"/>
	<path class="st0" d="M68.9,195.8c-4.5,12.2-4.7,25.6-2,38.3c9.3,43.3,47.2,77.3,94.7,67.9"/>
	<path class="st0" d="M165.4,93.6c4.8-5.8,12.9-7.7,20.4-8.4c11.5-1.2,23.4-0.7,34.3,3c11,3.6,21.1,10.6,27.4,20.3"/>
	<path class="st0" d="M255.2,127.9c3.7,11.8,3.1,24.9-1.9,36.2"/>
	<path class="st0" d="M89.9,224c-0.2-11.8,4.9-23.7,13.6-31.7"/>
	<path class="st0" d="M254.5,303.2c-22.5,2.7-53.3,1.3-77-18.5"/>
	<path class="st0" d="M218.6,248c19.2,1.1,42.2,13,65.9,48.5c0,0-12.5,4.5-30,6.6"/>
	<path class="st0" d="M218.6,248c-31.1-1.7-52.5,24.8-52,25.5c0.4,0.5,0.8,0.9,1.2,1.4"/>
	<path class="st0" d="M167.9,274.9c3.1,3.7,6.3,6.9,9.7,9.7"/>
	<path class="st0" d="M167.9,274.9c7.8-1.3,15.9-0.2,23.8,2.4"/>
	<path class="st0" d="M167.9,274.9c-5.6,0.9-11.1,3.1-16.3,6.8c-2.6,1.9-5,4-6.8,6.7"/>
	<path class="st0" d="M254.5,303.2c-3.8,0.4-7.6,0.7-10.5,0.1c-16.9-3.3-30-16.2-45.4-23.2c-2.3-1.1-4.7-2-7.1-2.8"/>
	<path class="st0" d="M254.5,303.2c4.2-0.5,8.4-1.2,11.6-1.2"/>
	<path class="st0" d="M250,285.1c-7.7-3.9-15.5-7.6-23.8-9.9c-8.3-2.2-26.2-0.1-25.8-0.1"/>
	<path class="st0" d="M221.7,260.1c-5.9-0.6-12,1.6-16.3,5.7"/>
	<path class="st0" d="M199.7,274.5c0.8-2.6,2.2-4.9,3.9-6.9"/>
	<path class="st0" d="M205.3,265.7c-0.6,0.6-1.2,1.2-1.8,1.9"/>
	<path class="st0" d="M228.2,274.7c2.2-2.9,5.7-4.7,9.3-5.4c3.6-0.7,7.3-0.5,10.9-0.4"/>
</g>
</svg>
